<svg xmlns="http://www.w3.org/2000/svg" viewBox="0 0 512 512" role="img" aria-label="Piscinar Logo">
  <defs>
    <linearGradient id="g1" x1="0" y1="0" x2="1" y2="1">
      <stop offset="0%" stop-color="#0a46cb"/>
      <stop offset="100%" stop-color="#73dbff"/>
    </linearGradient>
    <linearGradient id="g2" x1="0" y1="0" x2="1" y2="0">
      <stop offset="0%" stop-color="#0a46cb"/>
      <stop offset="100%" stop-color="#16a8ff"/>
    </linearGradient>
  </defs>
  <path fill="url(#g1)" d="M120 420 170 95h161c76 0 138 45 138 113 0 82-68 145-156 145h-89l-13 81z"/>
  <path fill="#f6fbff" d="M223 156h106c51 0 84 27 84 64 0 45-39 76-94 76h-104z"/>
  <path fill="url(#g2)" d="M181 302c28 25 67 39 109 39 39 0 75-11 104-31-14 38-60 66-113 66-40 0-76-16-100-40z" opacity=".9"/>
  <path fill="#1ec3ff" d="M351 174c-8 16-13 33-13 45 0 19 14 34 32 34s32-15 32-34c0-17-12-37-35-63-7 7-12 12-16 18z"/>
  <circle cx="364" cy="216" r="9" fill="#d4f6ff"/>
</svg>
